<?xml version="1.0" encoding="utf-8"?>
<!-- Generator: Adobe Illustrator 25.0.0, SVG Export Plug-In . SVG Version: 6.00 Build 0)  -->
<svg version="1.1" id="Warstwa_1" xmlns="http://www.w3.org/2000/svg" xmlns:xlink="http://www.w3.org/1999/xlink" x="0px" y="0px"
	 viewBox="0 0 16 16" style="enable-background:new 0 0 16 16;" xml:space="preserve">
<style type="text/css">
	.st0{fill:#46D246;}
</style>
<path class="st0" d="M1.8,9.6h2c0.6,0,1,0.4,1,1v3c0,0.6-0.4,1-1,1h-2c-0.6,0-1-0.4-1-1v-3C0.8,10,1.2,9.6,1.8,9.6z"/>
<path class="st0" d="M6.8,5.6h2c0.6,0,1,0.4,1,1v7c0,0.6-0.4,1-1,1h-2c-0.6,0-1-0.4-1-1v-7C5.8,6,6.2,5.6,6.8,5.6z"/>
<path class="st0" d="M11.8,0.6h2c0.6,0,1,0.4,1,1v12c0,0.6-0.4,1-1,1h-2c-0.6,0-1-0.4-1-1v-12C10.8,1,11.2,0.6,11.8,0.6z"/>
</svg>
