<?xml version="1.0" encoding="utf-8"?>
<!-- Generator: Adobe Illustrator 25.0.0, SVG Export Plug-In . SVG Version: 6.00 Build 0)  -->
<svg version="1.1" id="Warstwa_1" xmlns="http://www.w3.org/2000/svg" xmlns:xlink="http://www.w3.org/1999/xlink" x="0px" y="0px"
	 viewBox="0 0 12 12" style="enable-background:new 0 0 12 12;" xml:space="preserve">
<style type="text/css">
	.st0{fill-rule:evenodd;clip-rule:evenodd;}
	.st1{fill-rule:evenodd;clip-rule:evenodd;fill:#FFFFFF;}
</style>
<path class="st0" d="M6.1,1.6H5.9c-0.1,0-0.3-0.1-0.3-0.3v-1c0-0.1,0.1-0.3,0.3-0.3h0.1c0.1,0,0.3,0.1,0.3,0.3v1
	C6.3,1.5,6.2,1.6,6.1,1.6z"/>
<path class="st0" d="M3,2.9L3,2.9C2.8,3.1,2.6,3.1,2.5,3L1.8,2.2C1.7,2.1,1.7,2,1.8,1.8l0.1-0.1c0.1-0.1,0.3-0.1,0.4,0L3,2.5
	C3.1,2.6,3.1,2.8,3,2.9z"/>
<path class="st0" d="M1.6,5.9v0.1c0,0.1-0.1,0.3-0.3,0.3h-1c-0.1,0-0.3-0.1-0.3-0.3V5.9c0-0.1,0.1-0.3,0.3-0.3h1
	C1.5,5.7,1.6,5.8,1.6,5.9z"/>
<path class="st0" d="M2.9,9L2.9,9C3.1,9.2,3.1,9.4,3,9.5l-0.7,0.7c-0.1,0.1-0.3,0.1-0.4,0l-0.1-0.1c-0.1-0.1-0.1-0.3,0-0.4L2.5,9
	C2.6,8.9,2.8,8.9,2.9,9z"/>
<path class="st0" d="M5.9,10.4h0.1c0.1,0,0.3,0.1,0.3,0.3v1c0,0.1-0.1,0.3-0.3,0.3H5.9c-0.1,0-0.3-0.1-0.3-0.3v-1
	C5.7,10.5,5.8,10.4,5.9,10.4z"/>
<path class="st0" d="M9,9.1L9,9.1C9.2,8.9,9.4,8.9,9.5,9l0.7,0.7c0.1,0.1,0.1,0.3,0,0.4l-0.1,0.1c-0.1,0.1-0.3,0.1-0.4,0L9,9.5
	C8.9,9.4,8.9,9.2,9,9.1z"/>
<path class="st0" d="M10.4,6.1V5.9c0-0.1,0.1-0.3,0.3-0.3h1c0.1,0,0.3,0.1,0.3,0.3v0.1c0,0.1-0.1,0.3-0.3,0.3h-1
	C10.5,6.3,10.4,6.2,10.4,6.1z"/>
<path class="st0" d="M9.1,3L9.1,3C8.9,2.8,8.9,2.6,9,2.5l0.7-0.7c0.1-0.1,0.3-0.1,0.4,0l0.1,0.1c0.1,0.1,0.1,0.3,0,0.4L9.5,3
	C9.4,3.1,9.2,3.1,9.1,3z"/>
<g>
	<path class="st0" d="M2.3,6.1c0,2.1,1.7,3.7,3.7,3.7s3.7-1.7,3.7-3.7S8.1,2.4,6,2.4S2.3,4,2.3,6.1z"/>
	<path class="st1" d="M2.9,6.1c0,1.7,1.4,3.1,3.1,3.1V3C4.3,3,2.9,4.3,2.9,6.1z"/>
</g>
</svg>
