<svg xmlns="http://www.w3.org/2000/svg" viewBox="0 0 512 512">
    <defs>
        <style>.cls-1{fill:black;}.cls-2{fill:black;stroke:black;stroke-width:5px;}</style>
    </defs>
    <path class="cls-1" d="M237,294.1c0-23.49,9.61-41.28,29.18-53.74C285.42,228.44,295,214.38,295,198c0-17.79-12.46-28.11-34.17-28.11-18,0-36.56,7.91-51,20.73a14.37,14.37,0,0,1-19.85-.86l-4.95-5.13a14.57,14.57,0,0,1,.39-20.67c18.07-17.15,46-27.88,75.78-27.88,46.27,0,73,22.06,73,60.14,0,26.34-13.17,47.87-39.51,64.77-15.3,10-22.77,21.71-22.77,35.59h0a14.6,14.6,0,0,1-14.6,14.59h-5.69A14.59,14.59,0,0,1,237,296.59Z"/>
    <circle class="cls-1" cx="255.17" cy="355.92" r="26.34"/>
    <path class="cls-2" d="M441.41,129.76,325,13.31a14.58,14.58,0,0,0-10.3-4.26H110.86A43.72,43.72,0,0,0,67.19,52.72V462.25a43.72,43.72,0,0,0,43.67,43.67H402a43.72,43.72,0,0,0,43.67-43.67V140.06A14.7,14.7,0,0,0,441.41,129.76Zm-112.19-71L396,125.5h-52.2a14.57,14.57,0,0,1-14.55-14.56ZM402,476.81H110.86a14.57,14.57,0,0,1-14.55-14.56V52.72a14.57,14.57,0,0,1,14.55-14.56H300.1v72.78a43.72,43.72,0,0,0,43.67,43.67h72.79V462.25A14.57,14.57,0,0,1,402,476.81Z"/>
</svg>
