<svg xmlns="http://www.w3.org/2000/svg" viewBox="0 0 512 512">
    <defs>
        <style>.cls-1{fill:black;}.cls-2{fill:none;stroke:black;stroke-linejoin:round;stroke-width:38px;}</style>
    </defs>
    <path class="cls-1" d="M234.24,345.76c0-26.67,10.91-46.87,33.13-61,21.82-13.54,32.73-29.5,32.73-48.09,0-20.2-14.14-31.92-38.79-31.92-20.43,0-41.51,9-57.92,23.55a16.31,16.31,0,0,1-22.53-1l-5.63-5.82a16.56,16.56,0,0,1,.45-23.47c20.51-19.47,52.22-31.65,86-31.65,52.53,0,82.84,25,82.84,68.28q0,44.85-44.85,73.54c-17.38,11.32-25.86,24.65-25.86,40.41h0a16.57,16.57,0,0,1-16.57,16.57h-6.46a16.57,16.57,0,0,1-16.57-16.57Z"/>
    <circle class="cls-1" cx="254.85" cy="417.08" r="29.9"/>
    <path class="cls-2" d="M425.41,25.51H138.9c-17.73-.09-52.15,8.41-52.15,44.58V445.67c0,27.88,20.67,43.08,52.15,43.08H409c14.26,0,20.45-6.39,20.45-20V129.42a10.23,10.23,0,0,0-10.31-10c-20.67,0-280.21-.25-280.21-.25-31.73,0-52.15-18.08-52.15-49.08,0-31.5,29.42-44.67,52.15-44.58C144.52,25.53,425.41,25.51,425.41,25.51Z"/>
</svg>
