<?xml version="1.0" encoding="utf-8"?>
<!-- Generator: Adobe Illustrator 25.0.0, SVG Export Plug-In . SVG Version: 6.00 Build 0)  -->
<svg version="1.1" id="Warstwa_1" xmlns="http://www.w3.org/2000/svg" xmlns:xlink="http://www.w3.org/1999/xlink" x="0px" y="0px"
	 viewBox="0 0 16 16" style="enable-background:new 0 0 16 16;" xml:space="preserve">
<style type="text/css">
	.st0{fill:#FF9900;}
</style>
<path class="st0" d="M15.8,13L9.2,1.6c-0.5-1-1.9-1-2.4,0L0.2,13c-0.5,0.9,0.1,2.1,1.2,2.1h13.2C15.7,15.1,16.4,13.9,15.8,13z
	 M13.5,13.8h-11c-0.5,0-0.9-0.6-0.6-1.1l5.5-9.5c0.3-0.4,0.9-0.4,1.2,0l5.5,9.5C14.4,13.2,14,13.8,13.5,13.8z"/>
<g>
	<circle class="st0" cx="8" cy="12.1" r="0.9"/>
	<path class="st0" d="M8.1,10.4H7.9c-0.3,0-0.5-0.2-0.5-0.5V5.6c0-0.3,0.2-0.5,0.5-0.5h0.2c0.3,0,0.5,0.2,0.5,0.5v4.3
		C8.6,10.2,8.4,10.4,8.1,10.4z"/>
</g>
</svg>
